#!OML:ASF \\sashay\E\basketball\basketball\Project 1\Capture day 1\Session 1\Subject.ASF
:FULLY-SPECIFIED
:DEGREES
1
root -35.2605 15.8978 0.864184 -178.414 78.2344 177.316
lowerback 7.44333 1.65917 -4.20901
upperback 8.62344 2.49075 0.162968
thorax 4.6513 1.19558 2.45364
lowerneck 0.0330067 -10.6311 -15.4149
upperneck -15.6877 -12.1495 23.6819
head -1.84118 -6.20547 9.95996
rclavicle 3.3048e-015 8.67198e-015
rhumerus -37.2492 34.7998 -109.428
rradius 85.7896
rwrist -35.4843
rhand -22.2134 28.8959
rfingers 7.12502
rthumb 4.2027 -1.04241
lclavicle 3.3048e-015 8.67198e-015
lhumerus -35.7637 -16.8702 97.7477
lradius 93.2827
lwrist 29.772
lhand -19.2114 22.3356
lfingers 7.12502
lthumb 7.10112 52.1965
rfemur -15.0562 -1.09153 18.5601
rtibia 38.4505
rfoot -25.4629 -24.1551
rtoes 5.75886
lfemur -17.7317 -0.569462 -17.175
ltibia 33.6388
lfoot -15.3166 2.91604
ltoes -12.5184
2
root -35.263 15.8912 0.85635 -179.537 77.9733 176.134
lowerback 7.60154 1.67982 -4.51877
upperback 8.67947 2.51183 0.09918
thorax 4.61715 1.19552 2.55522
lowerneck 0.280635 -10.6766 -15.6085
upperneck -15.8875 -12.1995 23.9853
head -1.88653 -6.24991 10.1153
rclavicle -5.94739e-014 2.72583e-014
rhumerus -37.0756 34.8094 -109.355
rradius 85.3634
rwrist -35.0104
rhand -21.8437 30.0547
rfingers 7.12502
rthumb 4.55968 0.12376
lclavicle -5.94739e-014 2.72583e-014
lhumerus -36.0269 -17.7336 98.1585
lradius 92.5632
lwrist 25.816
lhand -21.3231 25.1064
lfingers 7.12502
lthumb 5.06242 55.026
rfemur -15.1117 -1.17414 18.275
rtibia 38.5971
rfoot -25.6578 -24.3107
rtoes 6.06283
lfemur -17.7984 -0.621819 -17.4876
ltibia 33.5449
lfoot -15.1594 2.82815
ltoes -13.418
3
root -35.2679 15.8817 0.848005 -179.86 77.7059 175.816
lowerback 7.84581 1.66477 -4.64556
upperback 8.7473 2.48767 0.0867359
thorax 4.55406 1.18253 2.60721
lowerneck 0.507223 -10.7842 -15.6033
upperneck -16.2733 -12.305 24.1468
head -1.99755 -6.32496 10.1951
rclavicle -1.75427e-014 1.28465e-014
rhumerus -36.953 34.8133 -109.297
rradius 84.983
rwrist -34.504
rhand -21.4381 31.1866
rfingers 7.12502
rthumb 4.95134 1.26444
lclavicle -1.75427e-014 1.28465e-014
lhumerus -35.6504 -17.49 97.7791
lradius 92.0851
lwrist 25.8103
lhand -20.3382 28.8291
lfingers 7.12502
lthumb 6.01328 58.7237
rfemur -15.0405 -1.19147 18.1901
rtibia 38.5713
rfoot -25.7927 -24.5205
rtoes 6.50386
lfemur -17.9144 -0.758682 -17.6063
ltibia 33.6669
lfoot -15.1278 2.64189
ltoes -13.1392
4
root -35.2723 15.8805 0.836724 -179.46 77.4826 176.126
lowerback 7.94383 1.67587 -4.47332
upperback 8.82795 2.52092 -0.0182589
thorax 4.5928 1.21454 2.39903
lowerneck 0.638864 -10.9193 -15.4806
upperneck -16.5426 -12.4366 24.3871
head -2.05442 -6.41594 10.2667
rclavicle -1.11816e-014 -1.36167e-014
rhumerus -36.5402 34.5653 -109.297
rradius 84.4906
rwrist -33.9398
rhand -21.1972 30.5672
rfingers 7.12502
rthumb 5.18396 0.650607
lclavicle -1.11816e-014 -1.36167e-014
lhumerus -35.3099 -17.5658 97.2787
lradius 91.6466
lwrist 25.3962
lhand -19.9845 34.1086
lfingers 7.12502
lthumb 6.35481 63.9933
rfemur -15.0914 -1.40362 18.2267
rtibia 38.5218
rfoot -25.7641 -24.6031
rtoes 6.16803
lfemur -18.1325 -0.756876 -17.5982
ltibia 33.8044
lfoot -15.1235 2.464
ltoes -13.4709
5
root -35.2765 15.8845 0.825218 -178.846 77.3669 176.653
lowerback 8.08901 1.72358 -4.34568
upperback 8.863 2.58996 -0.0336605
thorax 4.54915 1.25989 2.30429
lowerneck 0.688746 -11.0115 -15.5258
upperneck -16.529 -12.5693 24.5146
head -2.0163 -6.48948 10.3073
rclavicle 6.06293e-015 -1.19271e-014
rhumerus -36.2429 34.5482 -109.327
rradius 83.9816
rwrist -33.9517
rhand -20.2632 28.18
rfingers 7.12502
rthumb 6.08567 -1.71256
lclavicle 6.06293e-015 -1.19271e-014
lhumerus -35.1964 -17.5599 96.97
lradius 91.2707
lwrist 25.1397
lhand -19.8573 33.9739
lfingers 7.12502
lthumb 6.4776 63.8548
rfemur -15.1448 -1.6137 18.3145
rtibia 38.4096
rfoot -25.5642 -24.6801
rtoes 5.63723
lfemur -18.375 -0.564988 -17.5337
ltibia 33.994
lfoot -15.1017 2.28663
ltoes -14.4626
6
root -35.2794 15.8852 0.815127 -178.741 77.4721 176.94
lowerback 8.54786 1.86317 -4.41756
upperback 8.92412 2.7605 0.0349161
thorax 4.34415 1.34876 2.39125
lowerneck 0.706936 -11.0576 -15.6344
upperneck -16.3811 -12.6834 24.4319
head -1.9555 -6.53968 10.2806
rclavicle -5.60697e-014 2.27857e-014
rhumerus -36.1495 34.6772 -109.297
rradius 83.553
rwrist -34.0991
rhand -18.4326 25.2109
rfingers 7.12502
rthumb 7.85282 -4.62324
lclavicle -5.60697e-014 2.27857e-014
lhumerus -35.1173 -17.3922 96.8406
lradius 90.8287
lwrist 24.7498
lhand -19.9138 33.7044
lfingers 7.12502
lthumb 6.42302 63.587
rfemur -14.9693 -1.70714 18.3436
rtibia 38.2945
rfoot -25.0681 -24.7926
rtoes 4.92492
lfemur -18.2715 -0.323652 -17.5051
ltibia 34.2015
lfoot -15.212 2.13378
ltoes -14.34
